{
	"asset":{
		"generator":"Khronos glTF Blender I/O v4.0.44",
		"version":"2.0"
	},
	"extensionsUsed":[
		"KHR_materials_specular",
		"KHR_materials_ior"
	],
	"scene":0,
	"scenes":[
		{
			"name":"Scene",
			"nodes":[
				0,
				1
			]
		}
	],
	"nodes":[
		{
			"mesh":0,
			"name":"Chair_lp"
		},
		{
			"mesh":1,
			"name":"chair.001",
			"scale":[
				0.20503926277160645,
				0.20503926277160645,
				0.20503926277160645
			]
		}
	],
	"materials":[
		{
			"doubleSided":true,
			"name":"Chair.001",
			"normalTexture":{
				"index":0,
				"scale":0
			},
			"pbrMetallicRoughness":{
				"baseColorTexture":{
					"index":1
				},
				"metallicRoughnessTexture":{
					"index":2
				}
			}
		},
		{
			"doubleSided":true,
			"extensions":{
				"KHR_materials_specular":{
					"specularFactor":0
				},
				"KHR_materials_ior":{
					"ior":1.4500000476837158
				}
			},
			"name":"chair",
			"normalTexture":{
				"index":3
			},
			"pbrMetallicRoughness":{
				"baseColorTexture":{
					"index":4
				},
				"metallicFactor":0,
				"metallicRoughnessTexture":{
					"index":5
				}
			}
		}
	],
	"meshes":[
		{
			"name":"Plane.001",
			"primitives":[
				{
					"attributes":{
						"COLOR_0":0,
						"POSITION":1,
						"NORMAL":2,
						"TEXCOORD_0":3
					},
					"indices":4,
					"material":0
				}
			]
		},
		{
			"name":"Mesh",
			"primitives":[
				{
					"attributes":{
						"POSITION":5,
						"NORMAL":6,
						"TEXCOORD_0":7
					},
					"indices":8,
					"material":1
				}
			]
		}
	],
	"textures":[
		{
			"sampler":0,
			"source":0
		},
		{
			"sampler":0,
			"source":1
		},
		{
			"sampler":0,
			"source":2
		},
		{
			"sampler":0,
			"source":3
		},
		{
			"sampler":0,
			"source":4
		},
		{
			"sampler":0,
			"source":5
		}
	],
	"images":[
		{
			"mimeType":"image/png",
			"name":"bruh_Chair.001_Normal",
			"uri":"bruh_Chair_001_Normal.png"
		},
		{
			"mimeType":"image/png",
			"name":"bruh_Chair.001_BaseColor",
			"uri":"bruh_Chair_001_BaseColor.png"
		},
		{
			"mimeType":"image/png",
			"name":"bruh_Chair.001_Metallic-bruh_Chair.001_Roughness",
			"uri":"bruh_Chair_001_Metallic-bruh_Chair_001_Roughness.png"
		},
		{
			"mimeType":"image/png",
			"name":"chair_Normal",
			"uri":"chair_Normal.png"
		},
		{
			"mimeType":"image/png",
			"name":"chair_Albedo",
			"uri":"chair_Albedo.png"
		},
		{
			"mimeType":"image/png",
			"name":"chair_Roughness",
			"uri":"chair_Roughness.png"
		}
	],
	"accessors":[
		{
			"bufferView":0,
			"componentType":5123,
			"count":746,
			"normalized":true,
			"type":"VEC4"
		},
		{
			"bufferView":1,
			"componentType":5126,
			"count":746,
			"max":[
				1.821649432182312,
				7.700248718261719,
				1.600106954574585
			],
			"min":[
				-2.005507707595825,
				-2.531690199703007e-07,
				-1.6001733541488647
			],
			"type":"VEC3"
		},
		{
			"bufferView":2,
			"componentType":5126,
			"count":746,
			"type":"VEC3"
		},
		{
			"bufferView":3,
			"componentType":5126,
			"count":746,
			"type":"VEC2"
		},
		{
			"bufferView":4,
			"componentType":5123,
			"count":1884,
			"type":"SCALAR"
		},
		{
			"bufferView":5,
			"componentType":5126,
			"count":1237,
			"max":[
				9.952225685119629,
				38.86095428466797,
				8.675469398498535
			],
			"min":[
				-9.975706100463867,
				5.336767571861856e-05,
				-8.669564247131348
			],
			"type":"VEC3"
		},
		{
			"bufferView":6,
			"componentType":5126,
			"count":1237,
			"type":"VEC3"
		},
		{
			"bufferView":7,
			"componentType":5126,
			"count":1237,
			"type":"VEC2"
		},
		{
			"bufferView":8,
			"componentType":5123,
			"count":4314,
			"type":"SCALAR"
		}
	],
	"bufferViews":[
		{
			"buffer":0,
			"byteLength":5968,
			"byteOffset":0,
			"target":34962
		},
		{
			"buffer":0,
			"byteLength":8952,
			"byteOffset":5968,
			"target":34962
		},
		{
			"buffer":0,
			"byteLength":8952,
			"byteOffset":14920,
			"target":34962
		},
		{
			"buffer":0,
			"byteLength":5968,
			"byteOffset":23872,
			"target":34962
		},
		{
			"buffer":0,
			"byteLength":3768,
			"byteOffset":29840,
			"target":34963
		},
		{
			"buffer":0,
			"byteLength":14844,
			"byteOffset":33608,
			"target":34962
		},
		{
			"buffer":0,
			"byteLength":14844,
			"byteOffset":48452,
			"target":34962
		},
		{
			"buffer":0,
			"byteLength":9896,
			"byteOffset":63296,
			"target":34962
		},
		{
			"buffer":0,
			"byteLength":8628,
			"byteOffset":73192,
			"target":34963
		}
	],
	"samplers":[
		{
			"magFilter":9729,
			"minFilter":9987
		}
	],
	"buffers":[
		{
			"byteLength":81820,
			"uri":"Chair_model.bin"
		}
	]
}
