<?xml version="1.0" encoding="UTF-8" standalone="no"?>
<!-- Created with Inkscape (http://www.inkscape.org/) -->

<svg
   version="1.1"
   id="svg1"
   width="152.28163"
   height="157.57568"
   viewBox="0 0 152.28163 157.57568"
   sodipodi:docname="Chair_download.svg"
   inkscape:version="1.3.2 (091e20e, 2023-11-25, custom)"
   xmlns:inkscape="http://www.inkscape.org/namespaces/inkscape"
   xmlns:sodipodi="http://sodipodi.sourceforge.net/DTD/sodipodi-0.dtd"
   xmlns="http://www.w3.org/2000/svg"
   xmlns:svg="http://www.w3.org/2000/svg">
  <defs
     id="defs1" />
  <sodipodi:namedview
     id="namedview1"
     pagecolor="#ffffff"
     bordercolor="#000000"
     borderopacity="0.25"
     inkscape:showpageshadow="2"
     inkscape:pageopacity="0.0"
     inkscape:pagecheckerboard="0"
     inkscape:deskcolor="#d1d1d1"
     inkscape:zoom="2.2706297"
     inkscape:cx="118.68954"
     inkscape:cy="60.776092"
     inkscape:window-width="1350"
     inkscape:window-height="1032"
     inkscape:window-x="104"
     inkscape:window-y="0"
     inkscape:window-maximized="0"
     inkscape:current-layer="g1" />
  <g
     inkscape:groupmode="layer"
     inkscape:label="Image"
     id="g1"
     transform="translate(-47.957817,-20.55335)"
     style="display:inline">
    <rect
       style="display:none;opacity:1;fill:#000000;stroke:none;stroke-width:2.41134;stroke-linejoin:round"
       id="rect5"
       width="152.28163"
       height="157.57568"
       x="47.957817"
       y="20.55335"
       ry="5.241962"
       inkscape:export-filename="chair.png"
       inkscape:export-xdpi="96"
       inkscape:export-ydpi="96" />
    <path
       id="rect1"
       style="display:inline;opacity:1;stroke-width:1.92783;stroke-linejoin:round;fill:#ffffff"
       d="m 96.227046,104.32382 h 46.089334 c 3.27794,0 5.91687,2.63893 5.91687,5.91688 0,3.27794 -2.63893,5.91687 -5.91687,5.91687 H 96.227046 c -3.277947,0 -5.916873,-2.63893 -5.916873,-5.91687 0,-3.27795 2.638926,-5.91688 5.916873,-5.91688 z"
       inkscape:label="Seat" />
    <path
       id="rect2"
       style="display:inline;opacity:1;fill:#ffffff;stroke:none;stroke-width:1.92783;stroke-linejoin:round"
       d="M -80.330668 131.54234 L -124.55974 131.54262 C -127.83768 131.54262 -130.47647 134.18215 -130.47647 137.4601 C -130.47647 140.73804 -127.83694 143.37683 -124.559 143.37683 L -78.470599 143.37622 C -77.848386 143.37622 -77.248985 143.28119 -76.686499 143.10471 L -80.330668 131.54234 z "
       transform="rotate(-72.506447)"
       inkscape:label="Leg" />
    <path
       id="rect3"
       style="display:inline;opacity:1;fill:#ffffff;stroke:none;stroke-width:1.92783;stroke-linejoin:round"
       d="M -152.92923 -105.75354 C -153.82337 -104.3355 -154.11073 -102.54995 -153.56503 -100.81856 L -151.48139 -94.207498 C -152.04388 -94.03101 -152.64328 -93.935987 -153.26549 -93.935987 L -199.35389 -93.935371 C -202.63184 -93.935371 -205.27137 -96.574162 -205.27137 -99.852107 C -205.27137 -103.13005 -202.63258 -105.76958 -199.35463 -105.76958 L -153.26623 -105.7702 C -153.15268 -105.7702 -153.04117 -105.75979 -152.92923 -105.75354 z "
       transform="matrix(-0.30059848,-0.95375078,-0.95375078,0.30059848,0,0)"
       inkscape:label="Leg" />
    <path
       id="rect4"
       style="display:inline;opacity:1;fill:#ffffff;stroke:none;stroke-width:2.41134;stroke-linejoin:round"
       d="m -28.574157,-172.85819 c 0.793665,1.88268 2.653396,3.1977 4.831429,3.1977 l 70.005366,-5.1e-4 -0.269711,-0.69773 c -1.181876,-3.05747 0.329409,-6.46997 3.386874,-7.65184 1.554816,-0.60102 3.200165,-0.50448 4.598674,0.13625 -0.943416,-1.37223 -2.523834,-2.27012 -4.322104,-2.27012 l -73.399968,-2.1e-4 c -2.904044,0 -5.241648,2.33847 -5.241648,5.24251 0,0.72601 0.146533,1.41639 0.411088,2.04395 z"
       inkscape:label="Back"
       transform="rotate(111.13422)" />
    <path
       id="path6"
       style="display:inline;opacity:1;fill:#ffffff;stroke-width:1.58829;stroke-linejoin:round"
       inkscape:label="arm"
       d="M 100.08477 79.721319 C 97.859792 79.721319 96.069145 82.361341 96.069145 85.639287 C 96.069145 88.917224 97.859792 91.555303 100.08477 91.555303 L 115.72735 91.555303 L 115.72735 104.32288 L 119.27227 104.32288 L 119.27227 91.555303 L 131.36993 91.555303 C 133.59489 91.555303 135.38555 88.917224 135.38555 85.639287 C 135.38555 82.361341 133.59489 79.721319 131.36993 79.721319 L 100.08477 79.721319 z " />
  </g>
</svg>
